<mxfile host="65bd71144e">
    <diagram id="bJMIwr0A9He_RSmY0JB1" name="Seite-1">
        <mxGraphModel dx="1139" dy="609" grid="1" gridSize="10" guides="1" tooltips="1" connect="1" arrows="1" fold="1" page="1" pageScale="1" pageWidth="827" pageHeight="1169" math="0" shadow="0">
            <root>
                <mxCell id="0"/>
                <mxCell id="1" parent="0"/>
                <mxCell id="zQ4FurMcATKcGi5QNHq2-6" style="edgeStyle=orthogonalEdgeStyle;rounded=0;orthogonalLoop=1;jettySize=auto;html=1;entryX=0;entryY=0.5;entryDx=0;entryDy=0;" parent="1" source="zQ4FurMcATKcGi5QNHq2-1" target="zQ4FurMcATKcGi5QNHq2-2" edge="1">
                    <mxGeometry relative="1" as="geometry"/>
                </mxCell>
                <mxCell id="zQ4FurMcATKcGi5QNHq2-1" value="Retailer&lt;br&gt;(e.g Amadeus)" style="rounded=0;whiteSpace=wrap;html=1;fillColor=#dae8fc;strokeColor=#6c8ebf;" parent="1" vertex="1">
                    <mxGeometry x="200" y="400" width="120" height="60" as="geometry"/>
                </mxCell>
                <mxCell id="zQ4FurMcATKcGi5QNHq2-14" style="edgeStyle=orthogonalEdgeStyle;rounded=1;orthogonalLoop=1;jettySize=auto;html=1;entryX=0;entryY=0.5;entryDx=0;entryDy=0;" parent="1" source="zQ4FurMcATKcGi5QNHq2-2" target="zQ4FurMcATKcGi5QNHq2-13" edge="1">
                    <mxGeometry relative="1" as="geometry"/>
                </mxCell>
                <mxCell id="zQ4FurMcATKcGi5QNHq2-16" style="edgeStyle=orthogonalEdgeStyle;rounded=1;orthogonalLoop=1;jettySize=auto;html=1;entryX=0;entryY=0.5;entryDx=0;entryDy=0;startArrow=classic;startFill=1;exitX=0.5;exitY=1;exitDx=0;exitDy=0;" parent="1" source="zQ4FurMcATKcGi5QNHq2-2" target="zQ4FurMcATKcGi5QNHq2-15" edge="1">
                    <mxGeometry relative="1" as="geometry">
                        <Array as="points">
                            <mxPoint x="450" y="650"/>
                        </Array>
                    </mxGeometry>
                </mxCell>
                <mxCell id="zQ4FurMcATKcGi5QNHq2-2" value="Distributor (NDS)&lt;br&gt;(Turnit for Samtrafiken)" style="rounded=0;whiteSpace=wrap;html=1;fillColor=#e1d5e7;strokeColor=#9673a6;" parent="1" vertex="1">
                    <mxGeometry x="390" y="400" width="120" height="60" as="geometry"/>
                </mxCell>
                <mxCell id="zQ4FurMcATKcGi5QNHq2-36" style="edgeStyle=orthogonalEdgeStyle;rounded=1;orthogonalLoop=1;jettySize=auto;html=1;exitX=1;exitY=0.5;exitDx=0;exitDy=0;entryX=0;entryY=0.5;entryDx=0;entryDy=0;fontSize=16;startArrow=classic;startFill=1;" parent="1" source="zQ4FurMcATKcGi5QNHq2-3" target="zQ4FurMcATKcGi5QNHq2-35" edge="1">
                    <mxGeometry relative="1" as="geometry"/>
                </mxCell>
                <mxCell id="zQ4FurMcATKcGi5QNHq2-3" value="Distributor (SJ)" style="rounded=0;whiteSpace=wrap;html=1;fillColor=#d5e8d4;strokeColor=#82b366;" parent="1" vertex="1">
                    <mxGeometry x="590" y="300" width="120" height="60" as="geometry"/>
                </mxCell>
                <mxCell id="zQ4FurMcATKcGi5QNHq2-12" style="edgeStyle=orthogonalEdgeStyle;rounded=1;orthogonalLoop=1;jettySize=auto;html=1;entryX=0.5;entryY=0;entryDx=0;entryDy=0;startArrow=classic;startFill=1;exitX=0;exitY=0.5;exitDx=0;exitDy=0;" parent="1" source="zQ4FurMcATKcGi5QNHq2-4" target="zQ4FurMcATKcGi5QNHq2-2" edge="1">
                    <mxGeometry relative="1" as="geometry">
                        <Array as="points">
                            <mxPoint x="450" y="215"/>
                        </Array>
                    </mxGeometry>
                </mxCell>
                <mxCell id="zQ4FurMcATKcGi5QNHq2-4" value="IDP SJ" style="rounded=0;whiteSpace=wrap;html=1;fillColor=#d5e8d4;strokeColor=#82b366;" parent="1" vertex="1">
                    <mxGeometry x="590" y="185" width="120" height="60" as="geometry"/>
                </mxCell>
                <mxCell id="zQ4FurMcATKcGi5QNHq2-27" style="edgeStyle=orthogonalEdgeStyle;rounded=1;orthogonalLoop=1;jettySize=auto;html=1;entryX=0;entryY=0.5;entryDx=0;entryDy=0;startArrow=classic;startFill=1;" parent="1" source="zQ4FurMcATKcGi5QNHq2-5" target="zQ4FurMcATKcGi5QNHq2-1" edge="1">
                    <mxGeometry relative="1" as="geometry"/>
                </mxCell>
                <mxCell id="zQ4FurMcATKcGi5QNHq2-5" value="" style="shape=umlActor;verticalLabelPosition=bottom;verticalAlign=top;html=1;outlineConnect=0;" parent="1" vertex="1">
                    <mxGeometry x="40" y="400" width="30" height="60" as="geometry"/>
                </mxCell>
                <mxCell id="zQ4FurMcATKcGi5QNHq2-10" style="edgeStyle=orthogonalEdgeStyle;rounded=1;orthogonalLoop=1;jettySize=auto;html=1;exitX=0;exitY=0.5;exitDx=0;exitDy=0;startArrow=block;startFill=1;" parent="1" source="zQ4FurMcATKcGi5QNHq2-7" edge="1">
                    <mxGeometry relative="1" as="geometry">
                        <Array as="points">
                            <mxPoint x="380" y="130"/>
                            <mxPoint x="260" y="130"/>
                        </Array>
                        <mxPoint x="260" y="400" as="targetPoint"/>
                    </mxGeometry>
                </mxCell>
                <mxCell id="zQ4FurMcATKcGi5QNHq2-7" value="IDP&amp;nbsp;NDS" style="rounded=0;whiteSpace=wrap;html=1;fillColor=#e1d5e7;strokeColor=#9673a6;" parent="1" vertex="1">
                    <mxGeometry x="380" y="100" width="120" height="60" as="geometry"/>
                </mxCell>
                <mxCell id="zQ4FurMcATKcGi5QNHq2-8" value="" style="endArrow=classic;html=1;rounded=1;entryX=0;entryY=0.5;entryDx=0;entryDy=0;" parent="1" target="zQ4FurMcATKcGi5QNHq2-3" edge="1">
                    <mxGeometry width="50" height="50" relative="1" as="geometry">
                        <mxPoint x="510" y="420" as="sourcePoint"/>
                        <mxPoint x="680" y="420" as="targetPoint"/>
                        <Array as="points">
                            <mxPoint x="550" y="420"/>
                            <mxPoint x="550" y="330"/>
                        </Array>
                    </mxGeometry>
                </mxCell>
                <mxCell id="zQ4FurMcATKcGi5QNHq2-13" value="Distributor (XX)&lt;br&gt;(XX)" style="rounded=0;whiteSpace=wrap;html=1;fillColor=#00CC66;strokeColor=#00CC00;" parent="1" vertex="1">
                    <mxGeometry x="590" y="480" width="120" height="60" as="geometry"/>
                </mxCell>
                <mxCell id="zQ4FurMcATKcGi5QNHq2-15" value="IDP XX&lt;br&gt;" style="rounded=0;whiteSpace=wrap;html=1;fillColor=#00CC66;strokeColor=#00CC00;" parent="1" vertex="1">
                    <mxGeometry x="590" y="620" width="120" height="60" as="geometry"/>
                </mxCell>
                <mxCell id="zQ4FurMcATKcGi5QNHq2-18" value="Authorization-1: Amadeus" style="text;html=1;strokeColor=none;fillColor=none;align=left;verticalAlign=middle;whiteSpace=wrap;rounded=0;" parent="1" vertex="1">
                    <mxGeometry x="270" y="150" width="100" height="30" as="geometry"/>
                </mxCell>
                <mxCell id="zQ4FurMcATKcGi5QNHq2-19" value="Authorization-2: NDS" style="text;html=1;strokeColor=none;fillColor=none;align=left;verticalAlign=middle;whiteSpace=wrap;rounded=0;" parent="1" vertex="1">
                    <mxGeometry x="460" y="220" width="120" height="40" as="geometry"/>
                </mxCell>
                <mxCell id="zQ4FurMcATKcGi5QNHq2-20" value="Authorization-1: &lt;br&gt;Amadeus" style="text;html=1;strokeColor=none;fillColor=none;align=left;verticalAlign=middle;whiteSpace=wrap;rounded=0;" parent="1" vertex="1">
                    <mxGeometry x="280" y="470" width="90" height="40" as="geometry"/>
                </mxCell>
                <mxCell id="zQ4FurMcATKcGi5QNHq2-22" value="Authorization-3: NDS" style="text;html=1;strokeColor=none;fillColor=none;align=left;verticalAlign=middle;whiteSpace=wrap;rounded=0;" parent="1" vertex="1">
                    <mxGeometry x="460" y="660" width="120" height="30" as="geometry"/>
                </mxCell>
                <mxCell id="zQ4FurMcATKcGi5QNHq2-24" value="&lt;span style=&quot;font-size: 16px&quot;&gt;&lt;b&gt;Token Flow in OSDM&lt;/b&gt;&lt;/span&gt;" style="text;html=1;strokeColor=none;fillColor=none;align=left;verticalAlign=middle;whiteSpace=wrap;rounded=0;" parent="1" vertex="1">
                    <mxGeometry x="40" y="60" width="160" height="30" as="geometry"/>
                </mxCell>
                <mxCell id="zQ4FurMcATKcGi5QNHq2-25" value="We do not enocde meta information in the auth-token." style="rounded=0;whiteSpace=wrap;html=1;strokeColor=none;fillColor=none;align=left;" parent="1" vertex="1">
                    <mxGeometry x="40" y="140" width="200" height="30" as="geometry"/>
                </mxCell>
                <mxCell id="zQ4FurMcATKcGi5QNHq2-28" value="Authorization-2:NDS" style="text;html=1;strokeColor=none;fillColor=none;align=left;verticalAlign=middle;whiteSpace=wrap;rounded=0;" parent="1" vertex="1">
                    <mxGeometry x="590" y="380" width="130" height="30" as="geometry"/>
                </mxCell>
                <mxCell id="zQ4FurMcATKcGi5QNHq2-29" value="Authorization-3:NDS" style="text;html=1;strokeColor=none;fillColor=none;align=center;verticalAlign=middle;whiteSpace=wrap;rounded=0;" parent="1" vertex="1">
                    <mxGeometry x="585" y="550" width="130" height="30" as="geometry"/>
                </mxCell>
                <mxCell id="zQ4FurMcATKcGi5QNHq2-31" value="&lt;div&gt;Requester Information&lt;/div&gt;&lt;div&gt;&lt;span&gt;- channel-type: POS ¦ Web ¦ Mobile&lt;/span&gt;&lt;/div&gt;&lt;div&gt;&lt;span&gt;- workstation-number: e.g. Nizza&lt;/span&gt;&lt;/div&gt;&lt;div&gt;&lt;span&gt;- unitId: CWT-Team1-Münich&lt;/span&gt;&lt;/div&gt;&lt;div&gt;&lt;span&gt;- organizationId: CWT&lt;/span&gt;&lt;/div&gt;&lt;div&gt;&lt;span&gt;- systemId: Application&lt;/span&gt;&lt;/div&gt;&lt;div&gt;&lt;br&gt;&lt;/div&gt;&lt;div&gt;&lt;br&gt;&lt;/div&gt;&lt;div&gt;The requester information can be encoded&amp;nbsp;&lt;span&gt;in header X-RequesterInformation&lt;/span&gt;&lt;span&gt;:&amp;nbsp;&lt;/span&gt;&lt;/div&gt;" style="rounded=0;whiteSpace=wrap;html=1;strokeColor=none;fillColor=none;align=left;" parent="1" vertex="1">
                    <mxGeometry x="40" y="185" width="210" height="155" as="geometry"/>
                </mxCell>
                <mxCell id="zQ4FurMcATKcGi5QNHq2-32" value="X-RequesterInfo_2" style="text;html=1;strokeColor=none;fillColor=none;align=left;verticalAlign=middle;whiteSpace=wrap;rounded=0;" parent="1" vertex="1">
                    <mxGeometry x="590" y="400" width="140" height="30" as="geometry"/>
                </mxCell>
                <mxCell id="zQ4FurMcATKcGi5QNHq2-33" value="X-RequesterInfo" style="text;html=1;strokeColor=none;fillColor=none;align=left;verticalAlign=middle;whiteSpace=wrap;rounded=0;" parent="1" vertex="1">
                    <mxGeometry x="280" y="510" width="120" height="20" as="geometry"/>
                </mxCell>
                <mxCell id="zQ4FurMcATKcGi5QNHq2-34" value="X-RequesterInfo_3" style="text;html=1;strokeColor=none;fillColor=none;align=left;verticalAlign=middle;whiteSpace=wrap;rounded=0;" parent="1" vertex="1">
                    <mxGeometry x="590" y="574" width="140" height="20" as="geometry"/>
                </mxCell>
                <mxCell id="zQ4FurMcATKcGi5QNHq2-35" value="S3&lt;br&gt;Sqills" style="whiteSpace=wrap;html=1;aspect=fixed;fontSize=12;strokeColor=#82b366;fillColor=#d5e8d4;rounded=0;" parent="1" vertex="1">
                    <mxGeometry x="750" y="300" width="60" height="60" as="geometry"/>
                </mxCell>
                <mxCell id="zQ4FurMcATKcGi5QNHq2-37" value="&lt;span style=&quot;font-size: 12px;&quot;&gt;We use OAUTH2 (Authorization)&lt;/span&gt;" style="text;html=1;strokeColor=none;fillColor=none;align=left;verticalAlign=middle;whiteSpace=wrap;rounded=0;fontSize=16;" parent="1" vertex="1">
                    <mxGeometry x="40" y="100" width="190" height="30" as="geometry"/>
                </mxCell>
            </root>
        </mxGraphModel>
    </diagram>
</mxfile>